#!OML:ASF H:\MichaelJackson\Top Level 1\Subject 1\Session 1\male.ASF
:FULLY-SPECIFIED
:DEGREES
256
root -14.4943 15.7346 -13.587 10.0407 -4.11679 5.78939
lowerback -2.47295 -1.70437 0.807945
upperback -3.03075 -2.34748 -4.02805
thorax -1.9356 -1.24819 -4.62537
lowerneck -7.93627 2.10685 5.10943
upperneck 4.64581 2.27137 -0.124521
head 2.95464 1.22098 -0.820384
rclavicle 5.46658e-015 2.78299e-014
rhumerus 20.3578 -41.7819 -12.3025
rradius 49.6539
rwrist -37.3392
rhand -17.7067 -46.6896
rfingers 7.12502
rthumb 8.55342 -436.496
lclavicle 5.46658e-015 2.78299e-014
lhumerus -56.9976 -35.1274 115.732
lradius 50.8313
lwrist 15.4188
lhand 38.1488 21.3027
lfingers 7.12502
lthumb 60.8437 34.1658
rfemur -39.5281 -21.1147 3.0499
rtibia 58.2272
rfoot -27.9417 12.4906
rtoes -22.4463
lfemur -1.30499 -11.933 -4.69984
ltibia 16.4045
lfoot -34.6777 1.40712
ltoes -28.2849
257
root -14.4973 15.7359 -13.5829 10.1436 -4.06434 5.66438
lowerback -2.56073 -1.82087 0.801516
upperback -3.01461 -2.49983 -3.91369
thorax -1.87708 -1.322 -4.50599
lowerneck -7.92009 2.2612 5.28824
upperneck 4.77654 2.46096 -0.178669
head 3.00671 1.3188 -0.859599
rclavicle -6.31141e-014 -4.17448e-014
rhumerus 16.8074 -37.6591 -8.96977
rradius 53.6411
rwrist -38.4222
rhand -21.5942 -43.7814
rfingers 7.12502
rthumb 4.80056 -433.707
lclavicle -6.31141e-014 -4.17448e-014
lhumerus -56.8395 -34.3879 115.259
lradius 51.1056
lwrist 16.3989
lhand 37.2488 22.1485
lfingers 7.12502
lthumb 60.0781 35.8465
rfemur -39.5742 -20.7676 3.21831
rtibia 58.2321
rfoot -27.9978 11.7143
rtoes -23.1437
lfemur -1.34724 -12.2358 -4.56446
ltibia 16.2898
lfoot -34.4816 1.70741
ltoes -28.1829
258
root -14.4983 15.7403 -13.5787 10.2354 -4.11073 5.46647
lowerback -2.66553 -1.91809 0.922806
upperback -2.99144 -2.62754 -3.77365
thorax -1.80383 -1.38552 -4.43331
lowerneck -7.87687 2.42679 5.4534
upperneck 4.93861 2.67591 -0.33993
head 3.06787 1.42556 -0.930314
rclavicle -3.57315e-014 -2.54444e-014
rhumerus 13.79 -33.3279 -6.21369
rradius 57.865
rwrist -37.7501
rhand -24.7866 -40.934
rfingers 7.12502
rthumb 1.71771 -430.907
lclavicle -3.57315e-014 -2.54444e-014
lhumerus -56.6275 -33.6336 114.751
lradius 51.3252
lwrist 17.033
lhand 36.4957 22.6901
lfingers 7.12502
lthumb 59.4323 37.0529
rfemur -39.6197 -20.3501 3.46988
rtibia 58.1865
rfoot -28.0321 10.9628
rtoes -23.8414
lfemur -1.33407 -12.6423 -4.42542
ltibia 16.2279
lfoot -34.2149 2.31803
ltoes -28.1914
259
root -14.4979 15.7475 -13.5756 10.316 -4.25744 5.20158
lowerback -2.76503 -1.97946 1.16293
upperback -2.94934 -2.70894 -3.61425
thorax -1.71485 -1.4274 -4.40805
lowerneck -7.87378 2.58662 5.59733
upperneck 5.12862 2.88977 -0.594699
head 3.14904 1.52825 -1.02787
rclavicle 3.47873e-015 1.59028e-015
rhumerus 11.2715 -29.1278 -4.06138
rradius 62.3618
rwrist -35.7969
rhand -27.1336 -38.7365
rfingers 7.12502
rthumb -0.54914 -428.716
lclavicle 3.47873e-015 1.59028e-015
lhumerus -56.3315 -32.9215 114.207
lradius 51.4686
lwrist 17.2458
lhand 35.9396 22.8915
lfingers 7.12502
lthumb 58.9527 37.7261
rfemur -39.6756 -19.8736 3.80338
rtibia 58.1034
rfoot -28.0547 10.2308
rtoes -24.5899
lfemur -1.27183 -13.0941 -4.28159
ltibia 16.2223
lfoot -33.8906 3.18248
ltoes -28.3156
260
root -14.4974 15.7572 -13.5745 10.3952 -4.49246 4.89429
lowerback -2.82977 -1.99942 1.47478
upperback -2.90798 -2.7371 -3.443
thorax -1.64467 -1.44384 -4.40958
lowerneck -7.88727 2.7249 5.72096
upperneck 5.32024 3.08128 -0.910017
head 3.23552 1.61689 -1.14318
rclavicle 4.91992e-015 1.63003e-014
rhumerus 9.13912 -25.1985 -2.46738
rradius 67.1063
rwrist -32.7851
rhand -28.8731 -37.3184
rfingers 7.12502
rthumb -2.22912 -427.286
lclavicle 4.91992e-015 1.63003e-014
lhumerus -55.9844 -32.2553 113.652
lradius 51.545
lwrist 17.0172
lhand 35.5718 22.7727
lfingers 7.12502
lthumb 58.6342 37.9111
rfemur -39.7607 -19.354 4.19836
rtibia 57.9998
rfoot -28.0575 9.52915
rtoes -25.3524
lfemur -1.18186 -13.535 -4.14036
ltibia 16.2635
lfoot -33.5159 4.21425
ltoes -28.5529
261
root -14.498 15.7687 -13.5761 10.4735 -4.80267 4.56977
lowerback -2.84905 -1.97993 1.8031
upperback -2.85782 -2.71332 -3.26807
thorax -1.58697 -1.43425 -4.41473
lowerneck -7.94231 2.836 5.81654
upperneck 5.48855 3.23827 -1.22827
head 3.32134 1.68691 -1.25648
rclavicle -2.28602e-015 -1.31198e-014
rhumerus 7.26072 -21.5875 -1.35834
rradius 72.0927
rwrist -29.0994
rhand -30.223 -36.6907
rfingers 7.12502
rthumb -3.5328 -426.641
lclavicle -2.28602e-015 -1.31198e-014
lhumerus -55.5871 -31.6668 113.088
lradius 51.5777
lwrist 16.3891
lhand 35.2907 22.3112
lfingers 7.12502
lthumb 58.3902 37.6773
rfemur -39.8778 -18.7847 4.62482
rtibia 57.8917
rfoot -28.0312 8.86736
rtoes -26.021
lfemur -1.06733 -13.9265 -4.01019
ltibia 16.3268
lfoot -33.0936 5.33123
ltoes -28.8909
262
root -14.5013 15.7817 -13.5806 10.5481 -5.15407 4.26102
lowerback -2.78228 -1.93618 2.08546
upperback -2.82641 -2.6567 -3.09978
thorax -1.59181 -1.40849 -4.39691
lowerneck -7.9933 2.91788 5.90227
upperneck 5.62537 3.35557 -1.50729
head 3.39357 1.7378 -1.35766
rclavicle 1.50331e-014 -6.36111e-015
rhumerus 5.55497 -18.2836 -0.720927
rradius 77.2801
rwrist -25.0409
rhand -31.2745 -36.6681
rfingers 7.12502
rthumb -4.5482 -426.599
lclavicle 1.50331e-014 -6.36111e-015
lhumerus -55.2243 -31.1349 112.544
lradius 51.6129
lwrist 15.4391
lhand 34.9669 21.605
lfingers 7.12502
lthumb 58.1083 37.2288
rfemur -40.0147 -18.1744 5.0456
rtibia 57.7901
rfoot -27.974 8.21241
rtoes -26.6118
lfemur -0.947994 -14.2578 -3.9033
ltibia 16.4032
lfoot -32.6322 6.44161
ltoes -29.2911
263
root -14.5089 15.7963 -13.5877 10.5977 -5.47594 3.99001
lowerback -2.64732 -1.89528 2.27273
upperback -2.76893 -2.601 -2.93785
thorax -1.60362 -1.38106 -4.33003
lowerneck -8.09354 2.97781 5.97891
upperneck 5.70499 3.43684 -1.71986
head 3.45249 1.77206 -1.43702
rclavicle -2.13942e-014 -7.55382e-015
rhumerus 3.97023 -15.3499 -0.534244
rradius 82.577
rwrist -20.95
rhand -32.0448 -36.7003
rfingers 7.12502
rthumb -5.29199 -426.614
lclavicle -2.13942e-014 -7.55382e-015
lhumerus -54.8492 -30.6916 111.998
lradius 51.6795
lwrist 14.3005
lhand 34.4557 20.7298
lfingers 7.12502
lthumb 57.662 36.7506
rfemur -40.1148 -17.5424 5.43154
rtibia 57.6981
rfoot -27.8878 7.5144
rtoes -27.077
lfemur -0.827799 -14.5453 -3.81468
ltibia 16.4779
lfoot -32.1386 7.4713
ltoes -29.7553
264
root -14.5208 15.8121 -13.5981 10.6516 -5.80946 3.74517
lowerback -2.43679 -1.84538 2.36017
upperback -2.72781 -2.53078 -2.77996
thorax -1.66883 -1.34569 -4.20803
lowerneck -8.1617 3.01715 6.06957
upperneck 5.71186 3.48655 -1.87361
head 3.47747 1.79238 -1.50148
rclavicle 1.49089e-014 -1.82882e-014
rhumerus 2.44778 -12.6803 -0.76091
rradius 87.9517
rwrist -17.1463
rhand -32.2728 -36.1188
rfingers 7.12502
rthumb -5.51209 -426.027
lclavicle 1.49089e-014 -1.82882e-014
lhumerus -54.5374 -30.2912 111.476
lradius 51.806
lwrist 13.086
lhand 33.6684 19.7939
lfingers 7.12502
lthumb 56.9713 36.4038
rfemur -40.2285 -16.829 5.79932
rtibia 57.6085
rfoot -27.7481 6.75817
rtoes -27.3574
lfemur -0.73236 -14.7823 -3.74018
ltibia 16.56
lfoot -31.5822 8.45272
ltoes -30.2516
265
root -14.5381 15.8296 -13.6108 10.6841 -6.08104 3.52583
lowerback -2.15209 -1.80991 2.34392
upperback -2.67442 -2.47699 -2.62109
thorax -1.75991 -1.31679 -4.02459
lowerneck -8.23006 3.04723 6.15671
upperneck 5.64353 3.51795 -1.94915
head 3.47315 1.80565 -1.54017
rclavicle -3.87133e-014 3.1408e-014
rhumerus 0.979777 -10.3707 -1.40089
rradius 93.3043
rwrist -13.8874
rhand -31.8578 -34.3242
rfingers 7.12502
rthumb -5.11141 -424.243
lclavicle -3.87133e-014 3.1408e-014
lhumerus -54.2514 -29.9381 110.957
lradius 51.9876
lwrist 11.9043
lhand 32.5584 18.8436
lfingers 7.12502
lthumb 55.9912 36.2402
rfemur -40.2824 -16.0414 6.14187
rtibia 57.5051
rfoot -27.5607 5.87364
rtoes -27.4882
lfemur -0.676762 -14.978 -3.65718
ltibia 16.679
lfoot -30.9884 9.32113
ltoes -30.7405
266
root -14.561 15.8492 -13.6255 10.7061 -6.29118 3.30187
lowerback -1.82429 -1.78147 2.25551
upperback -2.59976 -2.43088 -2.45145
thorax -1.8506 -1.28982 -3.78881
lowerneck -8.29186 3.06737 6.25034
upperneck 5.48671 3.53223 -1.98345
head 3.43488 1.81101 -1.56722
rclavicle 8.07563e-015 -2.3059e-014
rhumerus -0.452641 -8.44787 -2.44344
rradius 98.577
rwrist -11.4742
rhand -30.2663 -30.5167
rfingers 7.12502
rthumb -3.57467 -420.466
lclavicle 8.07563e-015 -2.3059e-014
lhumerus -53.9707 -29.6178 110.428
lradius 52.2191
lwrist 10.8558
lhand 31.1235 17.9491
lfingers 7.12502
lthumb 54.7141 36.2925
rfemur -40.2709 -15.135 6.48763
rtibia 57.3637
rfoot -27.3241 4.83076
rtoes -27.4665
lfemur -0.691168 -15.1172 -3.53781
ltibia 16.8883
lfoot -30.3564 10.118
ltoes -31.2363
267
root -14.5892 15.8716 -13.6414 10.7352 -6.45825 3.03603
lowerback -1.47259 -1.74756 2.14242
upperback -2.49502 -2.37659 -2.26201
thorax -1.92167 -1.25724 -3.5192
lowerneck -8.41803 3.08318 6.34242
upperneck 5.27941 3.53437 -1.99296
head 3.39021 1.81021 -1.58583
rclavicle -8.46077e-014 -4.23411e-014
rhumerus -1.84968 -6.92076 -3.90352
rradius 103.69
rwrist -10.0573
rhand -27.0582 -24.7055
rfingers 7.12502
rthumb -0.476297 -414.685
lclavicle -8.46077e-014 -4.23411e-014
lhumerus -53.6489 -29.3071 109.859
lradius 52.4764
lwrist 10.0054
lhand 29.3619 17.1245
lfingers 7.12502
lthumb 53.1323 36.5327
rfemur -40.1985 -14.0486 6.86679
rtibia 57.1568
rfoot -27.0328 3.61518
rtoes -27.2823
lfemur -0.800109 -15.1605 -3.35213
ltibia 17.2317
lfoot -29.6633 10.8855
ltoes -31.7641
